<svg width="25" height="25" viewBox="0 0 25 25" fill="none" xmlns="http://www.w3.org/2000/svg">
<path d="M0 6.18719C0 5.08402 9.31323e-09 4.53244 0.0866875 4.07299C0.4683 2.05039 2.05039 0.4683 4.07299 0.0866875C4.53244 9.31323e-09 5.08402 0 6.18719 0C6.67053 0 6.9122 0 7.14446 0.021725C8.14581 0.115362 9.09565 0.5088 9.86992 1.15064C10.0495 1.29951 10.2204 1.47041 10.5621 1.81219L11.25 2.5C12.2697 3.51973 12.7796 4.02959 13.3901 4.36929C13.7255 4.55589 14.0814 4.70325 14.4505 4.80847C15.1224 5 15.8434 5 17.2855 5H17.7526C21.0431 5 22.6883 5 23.7578 5.96183C23.8561 6.0503 23.9497 6.14393 24.0381 6.24229C25 7.31169 25 8.95693 25 12.2474V15C25 19.714 25 22.0711 23.5355 23.5355C22.0711 25 19.714 25 15 25H10C5.28595 25 2.92894 25 1.46446 23.5355C1.49012e-07 22.0711 0 19.714 0 15V6.18719Z" fill="#2F2E41"/>
<path fill-rule="evenodd" clip-rule="evenodd" d="M12.8125 10C12.8125 9.48224 13.2322 9.0625 13.75 9.0625H20C20.5177 9.0625 20.9375 9.48224 20.9375 10C20.9375 10.5178 20.5177 10.9375 20 10.9375H13.75C13.2322 10.9375 12.8125 10.5178 12.8125 10Z" fill="white"/>
<path d="M18.732 1.27618C18.5401 1.25 18.3115 1.25 17.8544 1.25H12.5L12.9624 1.7289C13.7949 2.59124 14.1149 2.91314 14.4846 3.1262C14.6992 3.24987 14.9269 3.34755 15.163 3.41729C15.5699 3.53741 16.016 3.54422 17.1932 3.54422H17.6113C18.8643 3.5442 19.8744 3.54419 20.6736 3.64827C20.873 3.67424 21.0651 3.70727 21.25 3.75C21.018 2.45391 20.0054 1.44981 18.732 1.27618Z" fill="#2F2E41"/>
</svg>
